<svg id="bml-icon" data-name="icon" xmlns="http://www.w3.org/2000/svg" viewBox="0 0 1440 1440"><defs><style>.cls-1{fill:#40a9d7;}.cls-2{fill:#185885;}.cls-3{fill:#42afdb;}.cls-4{fill:#3c7fb8;}.cls-5{fill:#3b7fb7;}</style></defs><title>icon</title><path class="cls-3" d="M1203,444.94c1.24-12.49,2.46-25,3.75-37.47,1-10,2.14-20,3.27-30.05q2.3-20.44,4.69-40.86c.42-3.6,1-7.18,1.52-10.78,7,16.17,14,32.31,20.87,48.51q22.82,53.71,45.49,107.48c.62,1.46,1.12,3,2.13,5.7l-34.4-18.06q-21.6-11.39-43.22-22.77C1205.76,446,1204.33,445.5,1203,444.94Z"/><path class="cls-2" d="M1183.73,613c-10.32-1.31-20.65-2.67-31-3.93q-20.43-2.48-40.87-4.83c-12.82-1.46-25.66-2.72-38.47-4.21s-25.57-3.22-38.37-4.75-25.35-2.84-38-4.31-25.67-3.06-38.5-4.57C946,585,933.48,583.51,921,582c-13.33-1.57-26.65-3.19-40-4.73-12.68-1.47-25.38-2.82-38.06-4.3-16-1.87-31.91-3.84-47.88-5.7-12.68-1.48-25.37-2.83-38-4.31-13-1.52-26-3.16-39-4.66-2.63-.31-5.31-.22-8-.31l-42.23-5.23c1.5-1.18,2.55-2.1,3.7-2.89Q815.6,451,959.79,352.31c2.94-2,7.06-2.74,10.72-3.12q59.61-6.12,119.26-11.91,52.92-5.2,105.85-10.36c5-.48,9.93-1.15,14.9-1.54a36.21,36.21,0,0,1,5.67.4c-.51,3.6-1.1,7.18-1.52,10.78q-2.4,20.43-4.69,40.86c-1.13,10-2.24,20-3.27,30.05-1.29,12.48-2.51,25-3.75,37.47-1.65,13.7-3.35,27.4-4.92,41.11q-4.41,38.43-8.7,76.88Q1186.52,588,1183.73,613Z"/><path class="cls-1" d="M1183.73,613q-3.68,32.91-7.34,65.82c-2.48,22.29-4.89,44.58-7.39,66.86s-5.06,44.54-7.6,66.82c-.45,4-.72,8-1.44,11.86-.24,1.31-1.6,2.41-2.45,3.6l-2.5,1.12.1-.05a21.1,21.1,0,0,0-3.39.44c-19.67,5.76-39.33,11.58-59,17.33q-92.61,27.1-185.24,54.17-56.82,16.61-113.64,33.2c-18.77,5.52-37.48,11.23-56.22,16.86-18.67,5.38-37.37,10.67-56,16.15Q564.75,1001.52,448,1036c-4.22,1.24-5.93.45-6.85-3.72-1.11-5-2.6-9.92-4.07-14.82a21,21,0,0,0-2-3.77,47.77,47.77,0,0,0-.81-5.36Q420,954.08,405.75,899.85a39.13,39.13,0,0,0-2.59-5.83c0-1.57.31-3.23-.1-4.67-5.59-19.46-11.19-38.92-17-58.31-1-3.38-.48-5.3,2.27-7.56q110.58-90.94,221-182,48.4-39.86,96.92-79.55A51.18,51.18,0,0,0,710,558c2.66.09,5.34,0,8,.31,13,1.5,26,3.14,39,4.66,12.68,1.48,25.37,2.83,38,4.31,16,1.86,31.92,3.83,47.88,5.7,12.68,1.48,25.38,2.83,38.06,4.3,13.33,1.54,26.65,3.16,40,4.73,12.51,1.47,25,2.91,37.54,4.39,12.83,1.51,25.67,3.08,38.5,4.57s25.36,2.81,38,4.31,25.57,3.26,38.37,4.75,25.65,2.75,38.47,4.21q20.44,2.33,40.87,4.83C1163.08,610.36,1173.41,611.72,1183.73,613Z"/><path class="cls-2" d="M737.62,951.06c18.74-5.63,37.45-11.34,56.22-16.86q56.79-16.68,113.64-33.2,92.63-27.07,185.24-54.17c19.67-5.75,39.33-11.57,59-17.33a21.1,21.1,0,0,1,3.39-.44,27.05,27.05,0,0,1-3.41,3.59q-81.57,59.75-163.2,119.41-50.89,37.19-101.87,74.24a21.71,21.71,0,0,0-1.8,1.66c-7.5,5.37-15.07,10.64-22.48,16.13q-39.63,29.36-79.17,58.84c-5.57-18.28-11.21-36.53-16.69-54.84Q752,999.6,737.62,951.06Z"/><path class="cls-4" d="M783.18,1102.93q39.57-29.43,79.17-58.84c7.41-5.49,15-10.76,22.48-16.13l76.43,88.42c-10.23-.65-18.91-1.13-27.58-1.76-20.92-1.5-41.83-3.09-62.75-4.6q-42.84-3.09-85.67-6.14A6.57,6.57,0,0,1,783.18,1102.93Z"/><path class="cls-5" d="M393.63,1043.87Q380.33,987,367,930.1a32.16,32.16,0,0,0-1.12-3.26L403.16,894a39.13,39.13,0,0,1,2.59,5.83q14.31,54.23,28.47,108.49a47.77,47.77,0,0,1,.81,5.36q-18.4,13.66-36.82,27.32C396.77,1042.08,395.16,1042.92,393.63,1043.87Z"/><path class="cls-3" d="M393.63,1043.87a29.64,29.64,0,0,1-5.41,1.75c-25.74,3.17-51.49,6.24-77.23,9.36l-79.21,9.59q-34.65,4.2-69.31,8.39c-1.28.15-2.6,0-4.68,0a36.93,36.93,0,0,1,3.18-2.85Q261.5,999.57,362.06,929.07c1.21-.85,2.56-1.49,3.84-2.23A32.16,32.16,0,0,1,367,930.1Q380.34,987,393.63,1043.87Z"/></svg>